<svg id="Capa_1" enable-background="new 0 0 512 512" height="512" viewBox="0 0 512 512" width="512" xmlns="http://www.w3.org/2000/svg" xmlns:xlink="http://www.w3.org/1999/xlink"><linearGradient id="SVGID_1_" gradientUnits="userSpaceOnUse" x1="74.981" x2="437.02" y1="437.019" y2="74.98"><stop offset="0" stop-color="#364aff"/><stop offset="1" stop-color="#fc54ff"/></linearGradient><radialGradient id="SVGID_2_" cx="256.001" cy="256" gradientUnits="userSpaceOnUse" r="258.6"><stop offset="0" stop-color="#8d00db" stop-opacity=".66"/><stop offset=".2069" stop-color="#9f0de1" stop-opacity=".523"/><stop offset=".6178" stop-color="#cc30f0" stop-opacity=".252"/><stop offset="1" stop-color="#fc54ff" stop-opacity="0"/></radialGradient><linearGradient id="lg1"><stop offset="0" stop-color="#fc54ff"/><stop offset="1" stop-color="#fff"/></linearGradient><linearGradient id="SVGID_3_" gradientUnits="userSpaceOnUse" x1="77.551" x2="395.26" xlink:href="#lg1" y1="219.181" y2="-98.528"/><linearGradient id="SVGID_4_" gradientUnits="userSpaceOnUse" x1="115.33" x2="347.37" xlink:href="#lg1" y1="263.653" y2="31.614"/><linearGradient id="SVGID_5_" gradientUnits="userSpaceOnUse" x1="116.368" x2="350.151" xlink:href="#lg1" y1="225.491" y2="-8.292"/><linearGradient id="SVGID_6_" gradientUnits="userSpaceOnUse" x1="25.172" x2="593.47" xlink:href="#lg1" y1="484.088" y2="-84.209"/><linearGradient id="SVGID_7_" gradientUnits="userSpaceOnUse" x1="8.358" x2="626.648" xlink:href="#lg1" y1="602.906" y2="-15.384"/><linearGradient id="SVGID_8_" gradientUnits="userSpaceOnUse" x1="256" x2="256" y1="405.111" y2="166.082"><stop offset="0" stop-color="#fc54ff" stop-opacity="0"/><stop offset=".1998" stop-color="#f851fe" stop-opacity=".132"/><stop offset=".3878" stop-color="#ed49fa" stop-opacity=".256"/><stop offset=".5712" stop-color="#da3af4" stop-opacity=".377"/><stop offset=".7517" stop-color="#bf26eb" stop-opacity=".496"/><stop offset=".9285" stop-color="#9d0ce0" stop-opacity=".613"/><stop offset="1" stop-color="#8d00db" stop-opacity=".66"/></linearGradient><linearGradient id="lg2"><stop offset="0" stop-color="#fc54ff"/><stop offset=".1022" stop-color="#fd77ff"/><stop offset=".2431" stop-color="#fda0ff"/><stop offset=".3875" stop-color="#fec3ff"/><stop offset=".5338" stop-color="#feddff"/><stop offset=".6827" stop-color="#fff0ff"/><stop offset=".8359" stop-color="#fffbff"/><stop offset="1" stop-color="#fff"/></linearGradient><linearGradient id="SVGID_9_" gradientUnits="userSpaceOnUse" x1="228.133" x2="369.899" xlink:href="#lg2" y1="205.656" y2="63.889"/><linearGradient id="SVGID_10_" gradientUnits="userSpaceOnUse" x1="62.563" x2="263.99" y1="239.23" y2="37.803"><stop offset="0" stop-color="#fc54ff"/><stop offset=".1016" stop-color="#fd77ff"/><stop offset=".2418" stop-color="#fda0ff"/><stop offset=".3854" stop-color="#fec3ff"/><stop offset=".5309" stop-color="#feddff"/><stop offset=".679" stop-color="#fff0ff"/><stop offset=".8313" stop-color="#fffbff"/><stop offset=".9945" stop-color="#fff"/></linearGradient><linearGradient id="SVGID_11_" gradientUnits="userSpaceOnUse" x1="-86.51" x2="540.019" xlink:href="#lg1" y1="683.229" y2="56.701"/><linearGradient id="SVGID_12_" gradientUnits="userSpaceOnUse" x1="-140.889" x2="497.236" xlink:href="#lg1" y1="577.011" y2="-61.115"/><linearGradient id="SVGID_13_" gradientUnits="userSpaceOnUse" x1="112.069" x2="489.644" y1="349.324" y2="-28.251"><stop offset="0" stop-color="#fc54ff"/><stop offset=".9827" stop-color="#fff"/></linearGradient><linearGradient id="SVGID_14_" gradientUnits="userSpaceOnUse" x1="256" x2="256" y1="283.15" y2="127.35"><stop offset="0" stop-color="#8d00db" stop-opacity=".66"/><stop offset=".05" stop-color="#a613e3" stop-opacity=".627"/><stop offset=".1182" stop-color="#c127ec" stop-opacity=".582"/><stop offset=".1965" stop-color="#d738f3" stop-opacity=".53"/><stop offset=".2879" stop-color="#e844f8" stop-opacity=".47"/><stop offset=".401" stop-color="#f34dfc" stop-opacity=".395"/><stop offset=".5596" stop-color="#fa53fe" stop-opacity=".291"/><stop offset="1" stop-color="#fc54ff" stop-opacity="0"/></linearGradient><linearGradient id="SVGID_15_" gradientUnits="userSpaceOnUse" x1="122.406" x2="341.309" xlink:href="#lg2" y1="450.491" y2="231.588"/><linearGradient id="SVGID_16_" gradientUnits="userSpaceOnUse" x1="121.307" x2="365.248" xlink:href="#lg2" y1="418.42" y2="174.478"/><linearGradient id="SVGID_17_" gradientUnits="userSpaceOnUse" x1="118.969" x2="314.881" xlink:href="#lg2" y1="467.098" y2="271.185"/><linearGradient id="SVGID_18_" gradientUnits="userSpaceOnUse" x1="201.556" x2="297.313" xlink:href="#lg1" y1="399.064" y2="303.308"/><radialGradient id="SVGID_19_" cx="256" cy="344.65" gradientUnits="userSpaceOnUse" r="45.265"><stop offset="0" stop-color="#fc54ff" stop-opacity="0"/><stop offset=".1554" stop-color="#f54ffd" stop-opacity=".103"/><stop offset=".3736" stop-color="#e341f7" stop-opacity=".247"/><stop offset=".6288" stop-color="#c52bed" stop-opacity=".415"/><stop offset=".9101" stop-color="#9c0be0" stop-opacity=".601"/><stop offset="1" stop-color="#8d00db" stop-opacity=".66"/></radialGradient><g><circle cx="256" cy="256" fill="url(#SVGID_1_)" r="256"/><circle cx="256" cy="256" fill="url(#SVGID_2_)" r="256"/><path d="m211 66.087c-8.277.088-15.116 7.053-15.259 15.521-2.593 5.144-5.192 10.287-7.796 15.428 12.603-.161 25.206-.278 37.808-.35 5.115-10.272 10.201-20.544 15.247-30.81-10 .035-20 .105-30 .211z" fill="url(#SVGID_3_)"/><path d="m316.259 81.607c-.143-8.468-6.982-15.433-15.259-15.521-10-.105-20-.175-30-.21 5.045 10.266 10.131 20.538 15.247 30.81 12.603.072 25.206.188 37.808.35-2.604-5.141-5.203-10.284-7.796-15.429z" fill="url(#SVGID_4_)"/><path d="m271 65.876c-10-.035-20-.035-30 0-8.277.029-15.055 6.96-15.129 15.444-.068 8.486-.117 15.365-.117 15.365 20.164-.115 40.329-.115 60.493 0-.037-5.122-.076-10.244-.117-15.365-.075-8.483-6.853-15.414-15.13-15.444z" fill="url(#SVGID_5_)"/><path d="m78.252 212.071c-.4 53.483.541 106.965 2.822 160.448.733 16.607 14.888 30.65 31.426 31.225 10 .335 20 .635 30 .9 94.444-33.808 192.375-72.463 290.796-109.744.508-27.61.659-55.22.453-82.83-118.5-.672-236.998-.672-355.497.001z" fill="url(#SVGID_6_)"/><path d="m413.903 280.637c-37.417 11.014-74.788 22.154-112.014 33.155-30.593.144-61.186.144-91.778 0-27.01-7.982-54.096-16.037-81.221-24.065-9.845-2.905-19.565 4.277-19.386 14.366.401 23.112 1.007 46.225 1.817 69.337.611 16.722 14.641 30.761 31.18 31.216 85.667 2.271 171.333 1.971 257-.9 16.538-.575 30.693-14.618 31.426-31.225 1.104-25.873 1.893-51.745 2.369-77.618.187-10.021-9.54-17.158-19.393-14.266z" fill="url(#SVGID_7_)"/><path d="m78.252 212.071c-.4 53.483.541 106.965 2.822 160.448.733 16.607 14.888 30.65 31.426 31.225 95.667 3.207 191.333 3.207 287 0 16.538-.575 30.693-14.618 31.426-31.225 2.281-53.483 3.222-106.965 2.822-160.448-118.499-.673-236.997-.673-355.496 0z" fill="url(#SVGID_8_)"/><path d="m316.259 81.607c.299 18.575.543 37.15.734 55.724 5.083.041 10.165.086 15.248.137-.173-13.444-.381-26.887-.625-40.331-.159-8.455-7.044-15.422-15.357-15.53z" fill="url(#SVGID_9_)"/><path d="m180.384 97.138c-.244 13.444-.452 26.887-.625 40.331 5.083-.051 10.166-.097 15.248-.137.191-18.575.436-37.15.734-55.724-8.313.107-15.198 7.075-15.357 15.53z" fill="url(#SVGID_10_)"/><path d="m416.847 129.224c-10.148-.236-20.296-.451-30.444-.642 4.969 43.055 9.403 86.025 13.132 128.897 10.263-4.268 20.523-8.515 30.778-12.734 11.453-4.719 18.92-15.629 18.838-27.719-.123-19.009-.432-38.018-.926-57.027-.444-16.542-14.585-30.361-31.378-30.775z" fill="url(#SVGID_11_)"/><path d="m418.457 229.524c-.043-23.36-.318-46.72-.825-70.081-.376-16.668-14.436-30.526-31.229-30.862-33.319-.629-66.639-1.018-99.958-1.165-10.091 10.2-20.247 20.434-30.445 30.684-10.198-10.25-20.354-20.484-30.444-30.683-43.468.192-86.935.794-130.403 1.807-16.793.413-30.933 14.233-31.378 30.776-.494 19.009-.803 38.018-.926 57.027-.082 12.089 7.385 22.999 18.838 27.719 42.777 17.599 85.66 35.689 128.34 53.693 30.649.116 61.297.116 91.946 0 32.448-13.688 65.014-27.425 97.562-40.959 11.451-4.778 18.946-15.782 18.922-27.956z" fill="url(#SVGID_12_)"/><path d="m225.556 127.417c-.292 51.901-.375 103.802-.248 155.704 20.462.039 40.923.039 61.385 0 .127-51.901.044-103.803-.248-155.704-20.297-.089-40.593-.089-60.889 0z" fill="url(#SVGID_13_)"/><path d="m225.556 127.417c-.292 51.901-.375 103.802-.248 155.704 20.462.039 40.923.039 61.385 0 .127-51.901.044-103.803-.248-155.704-20.297-.089-40.593-.089-60.889 0z" fill="url(#SVGID_14_)"/><path d="m286.726 267.755c-10.241.013-20.483.02-30.724.02-.001 20.5-.002 41-.003 61.5 10.175 0 20.35-.019 30.525-.058 8.425-.032 15.31-6.948 15.365-15.426.062-10.237.112-20.473.149-30.71.033-8.476-6.828-15.335-15.312-15.326z" fill="url(#SVGID_15_)"/><path d="m286.622 306.169c.028-7.684.051-15.367.07-23.051.022-8.484-6.844-15.351-15.328-15.348-15.363.01-30.726.005-46.088-.015-8.485-.009-15.348 6.85-15.315 15.329.038 10.236.087 20.471.149 30.707.055 8.478 6.94 15.393 15.365 15.426 20.313-7.606 40.704-15.307 61.147-23.048z" fill="url(#SVGID_16_)"/><path d="m278.986 298.503c-15.324.029-30.649.029-45.973 0-4.233-.008-7.652 3.424-7.636 7.666.047 12.805.106 25.609.178 38.414.116 16.967 13.763 30.816 30.444 30.817 16.681-.001 30.328-13.851 30.444-30.817.072-12.805.132-25.609.178-38.414.017-4.243-3.402-7.673-7.635-7.666z" fill="url(#SVGID_17_)"/><path d="m271.222 344.633c-.029 8.488-6.846 15.392-15.222 15.392s-15.193-6.902-15.222-15.392c-.028-8.49 6.789-15.358 15.222-15.358 8.433.001 15.25 6.868 15.222 15.358z" fill="url(#SVGID_18_)"/><path d="m271.222 344.633c-.029 8.488-6.846 15.392-15.222 15.392s-15.193-6.902-15.222-15.392c-.028-8.49 6.789-15.358 15.222-15.358 8.433.001 15.25 6.868 15.222 15.358z" fill="url(#SVGID_19_)"/></g></svg>